<?xml version="1.0" encoding="UTF-8"?>
<svg version="1.1" xmlns="http://www.w3.org/2000/svg" width="500" height="500">
<path d="M0 0 C165 0 330 0 500 0 C500 165 500 330 500 500 C335 500 170 500 0 500 C0 335 0 170 0 0 Z " fill="#000000" transform="translate(0,0)"/>
<path d="M0 0 C47.48648649 0 47.48648649 0 56 7 C62.93796928 14.48212374 65.46914783 22.67691639 65.38818359 32.75756836 C65.39344055 33.58162674 65.39869751 34.40568512 65.40411377 35.25471497 C65.4172025 37.94995687 65.40861473 40.64459695 65.3984375 43.33984375 C65.40046163 45.23116671 65.40337588 47.1224889 65.40713501 49.0138092 C65.41154347 52.96688305 65.40517579 56.91975273 65.39111328 60.87280273 C65.37403411 65.91735844 65.38386402 70.96143476 65.40183067 76.00597286 C65.41271859 79.90869193 65.40919908 83.81129908 65.4014473 87.71402168 C65.3994585 89.57299419 65.40185769 91.43197714 65.40888596 93.29093742 C65.48302248 118.41018673 65.48302248 118.41018673 56 128 C40.21856593 140.6059016 19.24802898 135 0 135 C0 90.45 0 45.9 0 0 Z " fill="#FDFDFD" transform="translate(210,177)"/>
<path d="M0 0 C45.03703704 0 45.03703704 0 54.9375 5.6875 C62.49360028 14.15949122 63.21138158 22.57282142 63.24023438 33.45874023 C63.24988975 35.66233802 63.28089975 37.86498237 63.3125 40.06835938 C63.38108271 48.99432577 63.35013788 56.96724143 56.9375 63.9375 C56.43089844 64.50339844 55.92429687 65.06929688 55.40234375 65.65234375 C54 67 54 67 52 68 C52 68.66 52 69.32 52 70 C53.22676031 70.96771141 54.48246036 71.89885373 55.75 72.8125 C61.65957347 77.96933959 63.47365208 84.71151892 64.23321533 92.3432312 C64.62817677 98.57780506 64.65738385 104.8175053 64.6875 111.0625 C64.71665875 113.8586073 64.75119792 116.65455657 64.78999329 119.45054626 C64.8123111 121.17667908 64.82823276 122.90291001 64.83683777 124.62916565 C64.84738945 125.79704872 64.84738945 125.79704872 64.8581543 126.98852539 C64.86163376 127.66879288 64.86511322 128.34906036 64.86869812 129.04994202 C64.96716026 131.3696122 64.96716026 131.3696122 66 135 C58.74 135 51.48 135 44 135 C41.75056063 129.37640158 41.75056063 129.37640158 41.71289062 125.87158203 C41.69947632 125.09372345 41.68606201 124.31586487 41.67224121 123.51443481 C41.66696411 122.68724945 41.66168701 121.86006409 41.65625 121.0078125 C41.6416272 120.14364716 41.62700439 119.27948181 41.61193848 118.38912964 C41.56557947 115.63446644 41.53131085 112.87987282 41.5 110.125 C41.45866727 106.5023452 41.40490977 102.88018084 41.34375 99.2578125 C41.3384729 98.4346756 41.3331958 97.6115387 41.32775879 96.76345825 C41.24334539 91.82888671 40.73927 87.64131886 39 83 C33.65340631 79.90460365 26.98300088 80.49858341 21 80 C21 98.15 21 116.3 21 135 C14.07 135 7.14 135 0 135 C0 90.45 0 45.9 0 0 Z " fill="#FCFCFC" transform="translate(294,177)"/>
<path d="M0 0 C19.14 0 38.28 0 58 0 C58 6.27 58 12.54 58 19 C45.79 19 33.58 19 21 19 C21 31.54 21 44.08 21 57 C30.57 57 40.14 57 50 57 C50 63.27 50 69.54 50 76 C40.43 76 30.86 76 21 76 C21 89.2 21 102.4 21 116 C33.21 116 45.42 116 58 116 C58 122.27 58 128.54 58 135 C38.86 135 19.72 135 0 135 C0 90.45 0 45.9 0 0 Z " fill="#FEFEFE" transform="translate(133,177)"/>
<path d="M0 0 C7.59 0 15.18 0 23 0 C23.7425 2.990625 24.485 5.98125 25.25 9.0625 C27.08812956 16.43414052 28.98031885 23.7863637 30.9609375 31.12109375 C31.75512489 34.06704719 32.5256673 37.01857542 33.2890625 39.97265625 C33.51078125 40.82722412 33.7325 41.68179199 33.9609375 42.56225586 C34.39318392 44.23037743 34.82299944 45.89913142 35.25 47.56860352 C36.2726239 51.50263432 37.36485199 55.26466188 39 59 C39.24234375 57.94683594 39.4846875 56.89367187 39.734375 55.80859375 C41.81101038 46.84649311 44.03492573 37.94262415 46.44384766 29.06298828 C47.52103391 25.06727984 48.57183781 21.06459401 49.625 17.0625 C49.83116943 16.28148926 50.03733887 15.50047852 50.24975586 14.69580078 C50.44835205 13.94153809 50.64694824 13.18727539 50.8515625 12.41015625 C51.11187256 11.42221069 51.11187256 11.42221069 51.37744141 10.41430664 C52.27130086 6.94788463 53.13176764 3.47292943 54 0 C60.93 0 67.86 0 75 0 C73.38754384 7.41729835 71.57550693 14.55290582 69.09765625 21.72265625 C67.82597233 25.51960576 66.68326752 29.34381148 65.5625 33.1875 C65.35181885 33.90993896 65.1411377 34.63237793 64.92407227 35.37670898 C64.49436621 36.85350736 64.06525146 38.33047791 63.63671875 39.80761719 C62.61915268 43.31135311 61.59147288 46.81209966 60.5625 50.3125 C60.36035889 51.00053711 60.15821777 51.68857422 59.94995117 52.39746094 C57.80398314 59.68856107 55.61809361 66.96763934 53.4296875 74.24609375 C53.21120148 74.98438416 52.99271545 75.72267456 52.76760864 76.4833374 C52.27904428 78.08513237 51.76635699 79.67991083 51.22212219 81.26365662 C49.11102913 87.61057308 48.53287632 93.37707267 48.48828125 100.0390625 C48.47033005 101.04593109 48.45237885 102.05279968 48.43388367 103.09017944 C48.3802187 106.26841186 48.34602647 109.44649796 48.3125 112.625 C48.27928821 114.79559309 48.24479505 116.96616698 48.20898438 119.13671875 C48.12213396 124.42449512 48.06169053 129.71163255 48 135 C41.07 135 34.14 135 27 135 C27.01353516 130.29363281 27.01353516 130.29363281 27.02734375 125.4921875 C27.01222359 122.37063662 26.98527159 119.24938875 26.95727539 116.12792969 C26.94433149 113.99873716 26.94321702 111.86943183 26.95532227 109.74023438 C27.02950033 94.7915875 25.00151255 82.29224715 19.80264282 68.26678467 C18.66389134 65.05077833 17.82358049 61.81023889 17 58.5 C15.14735424 51.28106998 12.86703933 44.22460878 10.57299805 37.13525391 C8.46688214 30.58453461 6.61917863 24.02139588 4.91015625 17.35546875 C3.71018572 12.93154308 2.25155043 8.61691874 0.734375 4.29296875 C0 2 0 2 0 0 Z " fill="#FCFCFC" transform="translate(370,177)"/>
<path d="M0 0 C6.93 0 13.86 0 21 0 C21 38.28 21 76.56 21 116 C32.55 116 44.1 116 56 116 C56 122.27 56 128.54 56 135 C37.52 135 19.04 135 0 135 C0 90.45 0 45.9 0 0 Z " fill="#FEFEFE" transform="translate(62,177)"/>
<path d="M0 0 C15 0 15 0 21 4 C23.66838396 7.47558308 23.28904913 11.49557275 23.2746582 15.70263672 C23.2823246 16.85948471 23.2823246 16.85948471 23.29014587 18.03970337 C23.30403328 20.58644394 23.30308559 23.13291358 23.30078125 25.6796875 C23.30466901 27.45321757 23.30900385 29.22674672 23.31376648 31.00027466 C23.32122712 34.71749896 23.32093881 38.43462829 23.31567383 42.15185547 C23.30988329 46.90883712 23.32680083 51.6654289 23.3500185 56.42234612 C23.36477199 60.08556379 23.36562528 63.74868796 23.36250877 67.41193008 C23.3630213 69.16536353 23.36824618 70.9188023 23.37832069 72.67220688 C23.39069748 75.12791792 23.38388605 77.58287468 23.37231445 80.03857422 C23.38378006 81.11887909 23.38378006 81.11887909 23.39547729 82.2210083 C23.34710269 86.88031978 22.58778302 90.10955307 20 94 C15 97 15 97 0 97 C0 64.99 0 32.98 0 0 Z " fill="#050505" transform="translate(231,196)"/>
<path d="M0 0 C14 0 14 0 17.8125 2.375 C22.30559222 7.76671066 21.25980725 13.47019989 21.3125 20.25 C21.34150391 21.47847656 21.37050781 22.70695312 21.40039062 23.97265625 C21.47188191 34.12441922 21.47188191 34.12441922 19.29296875 37.734375 C13.44181672 43.5157518 8.40842288 42 0 42 C0 28.14 0 14.28 0 0 Z " fill="#070707" transform="translate(315,196)"/>
</svg>
